<?xml version="1.0" encoding="UTF-8"?>
<svg xmlns="http://www.w3.org/2000/svg" xmlns:xlink="http://www.w3.org/1999/xlink" width="854" height="480" viewBox="0 0 854 480">
<defs>
<g>
<g id="glyph-0-0">
<path d="M 0.234375 0 L 0.234375 -0.25 L 0.3125 -0.25 C 0.445312 -0.25 0.5625 -0.273438 0.65625 -0.328125 C 0.757812 -0.378906 0.8125 -0.503906 0.8125 -0.703125 L 0.8125 -3.6875 C 0.8125 -3.863281 0.757812 -3.976562 0.65625 -4.03125 C 0.5625 -4.082031 0.445312 -4.109375 0.3125 -4.109375 L 0.234375 -4.109375 L 0.234375 -4.359375 L 1.953125 -4.359375 C 2.460938 -4.359375 2.835938 -4.242188 3.078125 -4.015625 C 3.328125 -3.796875 3.453125 -3.484375 3.453125 -3.078125 C 3.453125 -2.835938 3.398438 -2.613281 3.296875 -2.40625 C 3.191406 -2.195312 3.019531 -2.023438 2.78125 -1.890625 C 2.539062 -1.765625 2.21875 -1.703125 1.8125 -1.703125 L 1.421875 -1.703125 L 1.421875 -0.671875 C 1.421875 -0.484375 1.472656 -0.363281 1.578125 -0.3125 C 1.679688 -0.269531 1.800781 -0.25 1.9375 -0.25 L 2.125 -0.25 L 2.125 0 Z M 1.75 -1.984375 C 2.125 -1.984375 2.390625 -2.066406 2.546875 -2.234375 C 2.710938 -2.398438 2.796875 -2.675781 2.796875 -3.0625 C 2.796875 -3.40625 2.722656 -3.65625 2.578125 -3.8125 C 2.429688 -3.976562 2.1875 -4.0625 1.84375 -4.0625 L 1.421875 -4.0625 L 1.421875 -1.984375 Z "/>
</g>
<g id="glyph-0-1">
<path d="M 0.234375 0 L 0.234375 -0.25 L 0.3125 -0.25 C 0.445312 -0.25 0.5625 -0.269531 0.65625 -0.3125 C 0.757812 -0.363281 0.8125 -0.484375 0.8125 -0.671875 L 0.8125 -3.671875 C 0.8125 -3.859375 0.757812 -3.976562 0.65625 -4.03125 C 0.5625 -4.082031 0.445312 -4.109375 0.3125 -4.109375 L 0.234375 -4.109375 L 0.234375 -4.359375 L 3.3125 -4.359375 L 3.34375 -3.296875 L 3.03125 -3.296875 L 3 -3.5625 C 2.976562 -3.6875 2.925781 -3.800781 2.84375 -3.90625 C 2.769531 -4.007812 2.640625 -4.0625 2.453125 -4.0625 L 1.421875 -4.0625 L 1.421875 -2.4375 L 2.90625 -2.4375 L 2.90625 -2.125 L 1.421875 -2.125 L 1.421875 -0.3125 L 2.609375 -0.3125 C 2.796875 -0.3125 2.929688 -0.359375 3.015625 -0.453125 C 3.109375 -0.554688 3.164062 -0.675781 3.1875 -0.8125 L 3.234375 -1.0625 L 3.546875 -1.0625 L 3.5 0 Z "/>
</g>
</g>
</defs>
<g fill="rgb(98.823529%, 38.431373%, 33.333333%)" fill-opacity="1">
<use xlink:href="#glyph-0-0" x="30" y="26.532227"/>
<use xlink:href="#glyph-0-1" x="34" y="26.532227"/>
</g>
</svg>
